{
    "asset" : {
        "generator" : "Khronos glTF Blender I/O v3.2.43",
        "version" : "2.0"
    },
    "scene" : 0,
    "scenes" : [
        {
            "name" : "Scene",
            "nodes" : [
                0
            ]
        }
    ],
    "nodes" : [
        {
            "mesh" : 0,
            "name" : "Cylinder",
            "rotation" : [
                0.7071068286895752,
                0,
                0,
                0.7071068286895752
            ],
            "scale" : [
                1,
                3,
                1
            ]
        }
    ],
    "meshes" : [
        {
            "name" : "Cylinder",
            "primitives" : [
                {
                    "attributes" : {
                        "POSITION" : 0,
                        "NORMAL" : 1,
                        "TEXCOORD_0" : 2
                    },
                    "indices" : 3
                }
            ]
        }
    ],
    "accessors" : [
        {
            "bufferView" : 0,
            "componentType" : 5126,
            "count" : 924,
            "max" : [
                1.5000001192092896,
                1.8202096223831177,
                1.499999761581421
            ],
            "min" : [
                -1.4999998807907104,
                -1.3333334922790527,
                -1.5000003576278687
            ],
            "type" : "VEC3"
        },
        {
            "bufferView" : 1,
            "componentType" : 5126,
            "count" : 924,
            "type" : "VEC3"
        },
        {
            "bufferView" : 2,
            "componentType" : 5126,
            "count" : 924,
            "type" : "VEC2"
        },
        {
            "bufferView" : 3,
            "componentType" : 5123,
            "count" : 4764,
            "type" : "SCALAR"
        }
    ],
    "bufferViews" : [
        {
            "buffer" : 0,
            "byteLength" : 11088,
            "byteOffset" : 0
        },
        {
            "buffer" : 0,
            "byteLength" : 11088,
            "byteOffset" : 11088
        },
        {
            "buffer" : 0,
            "byteLength" : 7392,
            "byteOffset" : 22176
        },
        {
            "buffer" : 0,
            "byteLength" : 9528,
            "byteOffset" : 29568
        }
    ],
    "buffers" : [
        {
            "byteLength" : 39096,
            "uri" : "submarine.bin"
        }
    ]
}
