{
    "asset" : {
        "generator" : "Khronos glTF Blender I/O v3.2.43",
        "version" : "2.0"
    },
    "scene" : 0,
    "scenes" : [
        {
            "name" : "Scene",
            "nodes" : [
                0
            ]
        }
    ],
    "nodes" : [
        {
            "mesh" : 0,
            "name" : "Cylinder",
            "rotation" : [
                0.7071068286895752,
                0,
                0,
                0.7071068286895752
            ],
            "scale" : [
                1,
                3,
                1
            ]
        }
    ],
    "meshes" : [
        {
            "name" : "Cylinder",
            "primitives" : [
                {
                    "attributes" : {
                        "POSITION" : 0,
                        "NORMAL" : 1,
                        "TEXCOORD_0" : 2
                    },
                    "indices" : 3
                }
            ]
        }
    ],
    "accessors" : [
        {
            "bufferView" : 0,
            "componentType" : 5126,
            "count" : 715,
            "max" : [
                0.3750000596046448,
                1.0782352685928345,
                0.37499988079071045
            ],
            "min" : [
                -0.3749999403953552,
                -0.4606722593307495,
                -0.37500011920928955
            ],
            "type" : "VEC3"
        },
        {
            "bufferView" : 1,
            "componentType" : 5126,
            "count" : 715,
            "type" : "VEC3"
        },
        {
            "bufferView" : 2,
            "componentType" : 5126,
            "count" : 715,
            "type" : "VEC2"
        },
        {
            "bufferView" : 3,
            "componentType" : 5123,
            "count" : 3624,
            "type" : "SCALAR"
        }
    ],
    "bufferViews" : [
        {
            "buffer" : 0,
            "byteLength" : 8580,
            "byteOffset" : 0
        },
        {
            "buffer" : 0,
            "byteLength" : 8580,
            "byteOffset" : 8580
        },
        {
            "buffer" : 0,
            "byteLength" : 5720,
            "byteOffset" : 17160
        },
        {
            "buffer" : 0,
            "byteLength" : 7248,
            "byteOffset" : 22880
        }
    ],
    "buffers" : [
        {
            "byteLength" : 30128,
            "uri" : "torpedo.bin"
        }
    ]
}
