{
    "asset" : {
        "generator" : "Khronos glTF Blender I/O v3.2.43",
        "version" : "2.0"
    },
    "scene" : 0,
    "scenes" : [
        {
            "name" : "Scene",
            "nodes" : [
                0
            ]
        }
    ],
    "nodes" : [
        {
            "mesh" : 0,
            "name" : "Sphere"
        }
    ],
    "meshes" : [
        {
            "name" : "Sphere",
            "primitives" : [
                {
                    "attributes" : {
                        "POSITION" : 0,
                        "NORMAL" : 1,
                        "TEXCOORD_0" : 2
                    },
                    "indices" : 3
                }
            ]
        }
    ],
    "accessors" : [
        {
            "bufferView" : 0,
            "componentType" : 5126,
            "count" : 949,
            "max" : [
                1.3615381717681885,
                1,
                1.5
            ],
            "min" : [
                -1.3615381717681885,
                -1,
                -1.5
            ],
            "type" : "VEC3"
        },
        {
            "bufferView" : 1,
            "componentType" : 5126,
            "count" : 949,
            "type" : "VEC3"
        },
        {
            "bufferView" : 2,
            "componentType" : 5126,
            "count" : 949,
            "type" : "VEC2"
        },
        {
            "bufferView" : 3,
            "componentType" : 5123,
            "count" : 3996,
            "type" : "SCALAR"
        }
    ],
    "bufferViews" : [
        {
            "buffer" : 0,
            "byteLength" : 11388,
            "byteOffset" : 0
        },
        {
            "buffer" : 0,
            "byteLength" : 11388,
            "byteOffset" : 11388
        },
        {
            "buffer" : 0,
            "byteLength" : 7592,
            "byteOffset" : 22776
        },
        {
            "buffer" : 0,
            "byteLength" : 7992,
            "byteOffset" : 30368
        }
    ],
    "buffers" : [
        {
            "byteLength" : 38360,
            "uri" : "mine.bin"
        }
    ]
}
